<svg width="24" height="24" viewBox="0 0 24 24" fill="none" xmlns="http://www.w3.org/2000/svg">
<path d="M17.6801 3.99998H16.7201V2.34998C16.7201 1.79998 16.2701 1.34998 15.7201 1.34998C15.1701 1.34998 14.7201 1.79998 14.7201 2.34998V3.99998H13.0001V2.34998C13.0001 1.79998 12.5501 1.34998 12.0001 1.34998C11.4501 1.34998 11.0001 1.79998 11.0001 2.34998V3.99998H9.28012V2.34998C9.28012 1.79998 8.83012 1.34998 8.28012 1.34998C7.73012 1.34998 7.28012 1.79998 7.28012 2.34998V3.99998H6.32012C5.10012 3.99998 4.12012 4.97998 4.12012 6.19998V17.8C4.12012 19.02 5.10012 20 6.32012 20H7.28012V21.65C7.28012 22.2 7.73012 22.65 8.28012 22.65C8.83012 22.65 9.28012 22.2 9.28012 21.65V20H11.0801V21.65C11.0801 22.2 11.5301 22.65 12.0801 22.65C12.6301 22.65 13.0801 22.2 13.0801 21.65V20H14.8801V21.65C14.8801 22.2 15.3301 22.65 15.8801 22.65C16.4301 22.65 16.8801 22.2 16.8801 21.65V20H17.6801C18.9001 20 19.8801 19.02 19.8801 17.8V6.19998C19.8801 4.97998 18.9001 3.99998 17.6801 3.99998ZM17.8801 18H6.12012V5.99998H17.8801V18Z" fill="#383838"/>
<path d="M9.95 16.25H14.05C15.27 16.25 16.25 15.27 16.25 14.05V9.95C16.25 8.73 15.27 7.75 14.05 7.75H9.95C8.73 7.75 7.75 8.73 7.75 9.95V14.05C7.75 15.27 8.73 16.25 9.95 16.25ZM9.75 9.75H14.25V14.25H9.75V9.75Z" fill="#383838"/>
</svg>
