<svg width="24" height="24" viewBox="0 0 24 24" fill="none" xmlns="http://www.w3.org/2000/svg">
<path d="M12.7599 2.22001L2.42991 12.55C1.56991 13.41 1.56991 14.8 2.42991 15.66L7.22991 20.46C7.97991 21.21 9.12991 21.3 9.97991 20.75L10.5799 21.35C11.4399 22.21 12.8299 22.21 13.6899 21.35L21.5599 13.48C22.4199 12.62 22.4199 11.23 21.5599 10.37L20.9599 9.77001C21.5099 8.92001 21.4199 7.77001 20.6699 7.02001L15.8699 2.22001C15.0099 1.36001 13.6199 1.36001 12.7599 2.22001ZM14.3199 3.49001L19.4099 8.58001L8.79991 19.19L3.70991 14.1L14.3199 3.49001ZM12.1399 20.08L11.4299 19.37L19.5799 11.22L20.2899 11.93L12.1399 20.08Z" fill="#383838"/>
<path d="M10.12 16.73C10.51 16.34 10.51 15.71 10.12 15.32L7.58995 12.79C7.19995 12.4 6.56995 12.4 6.17995 12.79C5.78995 13.18 5.78995 13.81 6.17995 14.2L8.70995 16.73C9.09995 17.12 9.72995 17.12 10.12 16.73Z" fill="#383838"/>
<path d="M13.5301 13.32C13.9201 12.93 13.9201 12.3 13.5301 11.91L11.0001 9.38002C10.6101 8.99002 9.98011 8.99002 9.59011 9.38002C9.20011 9.77002 9.20011 10.4 9.59011 10.79L12.1201 13.32C12.5101 13.71 13.1401 13.71 13.5301 13.32Z" fill="#383838"/>
<path d="M16.94 9.90999C17.33 9.51999 17.33 8.88999 16.94 8.49999L14.41 5.96999C14.02 5.57999 13.39 5.57999 13 5.96999C12.61 6.35999 12.61 6.98999 13 7.37999L15.53 9.90999C15.92 10.3 16.55 10.3 16.94 9.90999Z" fill="#383838"/>
</svg>
