<svg width="24" height="24" viewBox="0 0 24 24" fill="none" xmlns="http://www.w3.org/2000/svg">
<path d="M19.8 5.38H4.2C2.98 5.38 2 6.36 2 7.58V16.43C2 17.65 2.98 18.63 4.2 18.63H19.8C21.02 18.63 22 17.65 22 16.43V7.58C22 6.36 21.02 5.38 19.8 5.38ZM20 16.62H4V7.38H20V16.63V16.62Z" fill="#383838"/>
<path d="M5.74004 9.44999C6.12004 9.44999 6.44004 9.13999 6.44004 8.74999C6.44004 8.35999 6.13004 8.04999 5.74004 8.04999C5.35004 8.04999 5.04004 8.35999 5.04004 8.74999C5.04004 9.13999 5.35004 9.44999 5.74004 9.44999Z" fill="#383838"/>
<path d="M18.2601 9.44999C18.6401 9.44999 18.9601 9.13999 18.9601 8.74999C18.9601 8.35999 18.6501 8.04999 18.2601 8.04999C17.8701 8.04999 17.5601 8.35999 17.5601 8.74999C17.5601 9.13999 17.8701 9.44999 18.2601 9.44999Z" fill="#383838"/>
<path d="M5.74004 15.94C6.12004 15.94 6.44004 15.63 6.44004 15.24C6.44004 14.85 6.13004 14.54 5.74004 14.54C5.35004 14.54 5.04004 14.85 5.04004 15.24C5.04004 15.63 5.35004 15.94 5.74004 15.94Z" fill="#383838"/>
<path d="M18.2601 15.94C18.6401 15.94 18.9601 15.63 18.9601 15.24C18.9601 14.85 18.6501 14.54 18.2601 14.54C17.8701 14.54 17.5601 14.85 17.5601 15.24C17.5601 15.63 17.8701 15.94 18.2601 15.94Z" fill="#383838"/>
<path d="M8.64989 13.15C8.53989 13.19 8.41989 13.21 8.26989 13.21C8.11989 13.21 7.98989 13.19 7.86989 13.14C7.74989 13.09 7.65989 13.03 7.58989 12.94C7.51989 12.85 7.47989 12.74 7.46989 12.6H6.63989C6.63989 12.89 6.71989 13.13 6.84989 13.33C6.97989 13.53 7.16989 13.68 7.40989 13.78C7.64989 13.88 7.93989 13.93 8.25989 13.93C8.57989 13.93 8.86989 13.88 9.09989 13.78C9.32989 13.68 9.50989 13.54 9.63989 13.36C9.75989 13.18 9.82989 12.96 9.82989 12.72C9.82989 12.55 9.79989 12.4 9.73989 12.27C9.67989 12.14 9.59989 12.03 9.48989 11.93C9.37989 11.83 9.24989 11.75 9.10989 11.69C8.95989 11.62 8.79989 11.57 8.61989 11.53L8.25989 11.44C8.16989 11.42 8.08989 11.4 8.00989 11.37C7.92989 11.34 7.85989 11.31 7.79989 11.27C7.73989 11.23 7.68989 11.18 7.65989 11.13C7.62989 11.08 7.60989 11.01 7.60989 10.94C7.60989 10.85 7.63989 10.77 7.68989 10.71C7.73989 10.65 7.80989 10.59 7.90989 10.55C8.00989 10.51 8.11989 10.49 8.25989 10.49C8.46989 10.49 8.62989 10.53 8.74989 10.62C8.86989 10.71 8.93989 10.83 8.94989 10.99H9.76989C9.76989 10.75 9.69989 10.54 9.57989 10.35C9.45989 10.17 9.27989 10.02 9.05989 9.92002C8.83989 9.82002 8.56989 9.77002 8.26989 9.77002C7.96989 9.77002 7.70989 9.82002 7.47989 9.92002C7.24989 10.02 7.06989 10.17 6.92989 10.35C6.79989 10.53 6.72989 10.75 6.72989 10.99C6.72989 11.29 6.82989 11.53 7.01989 11.7C7.21989 11.88 7.48989 12.01 7.82989 12.09L8.26989 12.2C8.41989 12.24 8.53989 12.28 8.63989 12.32C8.73989 12.36 8.81989 12.42 8.86989 12.48C8.91989 12.54 8.94989 12.62 8.94989 12.71C8.94989 12.81 8.91989 12.89 8.85989 12.97C8.79989 13.05 8.71989 13.1 8.60989 13.15H8.64989Z" fill="#383838"/>
<path d="M12.29 13.15C12.18 13.19 12.06 13.21 11.91 13.21C11.76 13.21 11.63 13.19 11.51 13.14C11.39 13.09 11.3 13.03 11.23 12.94C11.16 12.85 11.12 12.74 11.11 12.6H10.28C10.28 12.89 10.36 13.13 10.49 13.33C10.62 13.53 10.81 13.68 11.05 13.78C11.29 13.88 11.58 13.93 11.9 13.93C12.22 13.93 12.51 13.88 12.74 13.78C12.97 13.68 13.15 13.54 13.28 13.36C13.4 13.18 13.47 12.96 13.47 12.72C13.47 12.55 13.44 12.4 13.38 12.27C13.32 12.14 13.24 12.03 13.13 11.93C13.02 11.83 12.89 11.75 12.75 11.69C12.6 11.62 12.44 11.57 12.26 11.53L11.9 11.44C11.81 11.42 11.73 11.4 11.65 11.37C11.57 11.34 11.5 11.31 11.44 11.27C11.38 11.23 11.33 11.18 11.3 11.13C11.27 11.08 11.25 11.01 11.25 10.94C11.25 10.85 11.28 10.77 11.33 10.71C11.38 10.65 11.45 10.59 11.55 10.55C11.65 10.51 11.76 10.49 11.9 10.49C12.11 10.49 12.27 10.53 12.39 10.62C12.51 10.71 12.58 10.83 12.59 10.99H13.41C13.41 10.75 13.34 10.54 13.22 10.35C13.1 10.17 12.92 10.02 12.7 9.92002C12.48 9.82002 12.21 9.77002 11.91 9.77002C11.61 9.77002 11.35 9.82002 11.12 9.92002C10.89 10.02 10.71 10.17 10.57 10.35C10.44 10.53 10.37 10.75 10.37 10.99C10.37 11.29 10.47 11.53 10.66 11.7C10.86 11.88 11.13 12.01 11.47 12.09L11.91 12.2C12.06 12.24 12.18 12.28 12.28 12.32C12.38 12.36 12.46 12.42 12.51 12.48C12.56 12.54 12.59 12.62 12.59 12.71C12.59 12.81 12.56 12.89 12.5 12.97C12.44 13.05 12.36 13.1 12.25 13.15H12.29Z" fill="#383838"/>
<path d="M16.5601 13.63C16.8601 13.47 17.0801 13.24 17.2401 12.93C17.4001 12.62 17.4801 12.27 17.4801 11.84C17.4801 11.41 17.4001 11.06 17.2401 10.76C17.0801 10.46 16.8601 10.23 16.5601 10.07C16.2701 9.91002 15.9201 9.83002 15.5101 9.83002H14.0601V13.87H15.4901C15.9001 13.87 16.2501 13.79 16.5501 13.63H16.5601ZM14.9201 13.14V10.56H15.4701C15.7201 10.56 15.9401 10.6 16.1101 10.69C16.2801 10.78 16.4101 10.92 16.5001 11.11C16.5901 11.3 16.6301 11.54 16.6301 11.84C16.6301 12.14 16.5901 12.39 16.5001 12.58C16.4101 12.77 16.2801 12.91 16.1101 13C15.9401 13.09 15.7201 13.14 15.4701 13.14H14.9301H14.9201Z" fill="#383838"/>
</svg>
